{"title":"Journey - Live In Tokyo 1983[Rip].AVI","uid":7286857,"size":702059124,"categoryP":"video","categoryS":"music_videos","magnet":"?xt=urn:btih:772f1e1bb78caef8f6eff76c97b9ac8d822ac589&amp;dn=Journey+-+Live+In+Tokyo+1983%5BRip%5D.AVI&amp;tr=udp%3A%2F%2Ftracker.openbittorrent.com%3A80&amp;tr=udp%3A%2F%2Fopen.demonii.com%3A1337&amp;tr=udp%3A%2F%2Ftracker.coppersurfer.tk%3A6969&amp;tr=udp%3A%2F%2Fexodus.desync.com%3A6969","seeders":2,"leechers":1,"uploader":"eky793","files":1,"time":1337611469,"description":"                Journey - Live In Tokyo 1983[Rip].AVI\n\n                 # Don't Stop Believin'.\n\n                 # Faithfully.\n\n                 # Open Arms.\n\n                 # Separate Ways.\n\n                 # Who's Crying Now.\n\n\n\n      Format : AVI\n      Format/Info : Audio Video Interleave\n      File size : 670 MiB\n      Duration : 22mn 15s\n      Overall bit rate : 4 204 Kbps\n   Video #0\n      ID : 0\n      Format : MPEG-4 Visual\n      Format profile : Simple@L3\n      Format settings, BVOP : No\n      Format settings, QPel : No\n      Format settings, GMC : No warppoints\n      Format settings, Matrix : Default (H.263)\n      Codec ID : XVID\n      Codec ID/Hint : XviD\n      Duration : 22mn 15s\n      Bit rate : 4 004 Kbps\n      Width : 1 280 pixels\n      Height : 720 pixels\n      Display aspect ratio : 16:9\n      Frame rate : 30.000 fps\n      Resolution : 24 bits\n      Colorimetry : 4:2:0\n      Scan type : Progressive\n      Bits/(Pixel*Frame) : 0.145\n      Stream size : 638 MiB (95%)\n      Writing library : ZJMedia MPEG Encoder\n   Audio #1\n      ID : 1\n      Format : AC-3\n      Format/Info : Audio Coding 3\n      Codec ID : 2000\n      Duration : 22mn 15s\n      Bit rate mode : Constant\n      Bit rate : 192 Kbps\n      Channel(s) : 2 channels\n      Channel positions : L R\n      Sampling rate : 48.0 KHz\n      Stream size : 30.6 MiB (5%)\n      Alignment : Split accross interleaves\n      Interleave, duration : 1000 ms (30.00 video frames)","torrent":{"xt":"urn:btih:772f1e1bb78caef8f6eff76c97b9ac8d822ac589","amp;dn":"Journey+-+Live+In+Tokyo+1983%5BRip%5D.AVI","amp;tr":["udp%3A%2F%2Ftracker.openbittorrent.com%3A80","udp%3A%2F%2Fopen.demonii.com%3A1337","udp%3A%2F%2Ftracker.coppersurfer.tk%3A6969","udp%3A%2F%2Fexodus.desync.com%3A6969"],"infoHash":"772f1e1bb78caef8f6eff76c97b9ac8d822ac589","infoHashBuffer":{"type":"Buffer","data":[119,47,30,27,183,140,174,248,246,239,247,108,151,185,172,141,130,42,197,137]},"announce":[],"urlList":[]}}